<svg width="69" height="66" viewBox="0 0 69 66" fill="none" xmlns="http://www.w3.org/2000/svg">
<path fill-rule="evenodd" clip-rule="evenodd" d="M48 1C59.598 1 69 10.402 69 22C69 23.4157 68.8599 24.7986 68.5929 26.1358C66.7394 40.1032 48.1104 56 48.1104 56C48.1104 56 32.2569 42.4717 28.3446 29.4096C27.4755 27.1054 27 24.6083 27 22C27 10.402 36.402 1 48 1Z" fill="#238E33"/>
<path d="M56 22C56 17.5817 52.4183 14 48 14C43.5817 14 40 17.5817 40 22C40 26.4183 43.5817 30 48 30C52.4183 30 56 26.4183 56 22Z" fill="white"/>
<path fill-rule="evenodd" clip-rule="evenodd" d="M21 0C32.598 0 42 9.40202 42 21C42 22.4157 41.8599 23.7986 41.5929 25.1358C39.7394 39.1032 21.1104 55 21.1104 55C21.1104 55 5.25689 41.4717 1.34456 28.4096C0.475507 26.1054 0 23.6083 0 21C0 9.40202 9.40202 0 21 0Z" fill="#FFBA26"/>
<path d="M29 21C29 16.5817 25.4183 13 21 13C16.5817 13 13 16.5817 13 21C13 25.4183 16.5817 29 21 29C25.4183 29 29 25.4183 29 21Z" fill="white"/>
<path fill-rule="evenodd" clip-rule="evenodd" d="M35 11C46.598 11 56 20.402 56 32C56 33.4157 55.8599 34.7986 55.5929 36.1358C53.7394 50.1032 35.1104 66 35.1104 66C35.1104 66 19.2569 52.4717 15.3446 39.4096C14.4755 37.1054 14 34.6083 14 32C14 20.402 23.402 11 35 11Z" fill="#2600FF"/>
<path d="M43 32C43 27.5817 39.4183 24 35 24C30.5817 24 27 27.5817 27 32C27 36.4183 30.5817 40 35 40C39.4183 40 43 36.4183 43 32Z" fill="white"/>
</svg>
